<svg xmlns="http://www.w3.org/2000/svg" xmlns:xlink="http://www.w3.org/1999/xlink" width="500" zoomAndPan="magnify" viewBox="0 0 375 374.999991" height="500" preserveAspectRatio="xMidYMid meet" version="1.2"><defs><clipPath id="b3d8e93cac"><path d="M 23 137 L 352 137 L 352 252.328125 L 23 252.328125 Z M 23 137 "/></clipPath></defs><g id="a07eebcd7f"><g clip-rule="nonzero" clip-path="url(#b3d8e93cac)"><path style=" stroke:none;fill-rule:nonzero;fill:#9e886d;fill-opacity:1;" d="M 324.214844 144.359375 C 328.253906 137.34375 337.21875 134.953125 344.199219 139.03125 C 351.21875 143.074219 353.605469 152.039062 349.5625 159.054688 C 332.847656 187.96875 309.042969 211.371094 281.082031 227.535156 C 253.050781 243.699219 220.871094 252.625 187.476562 252.625 C 154.078125 252.625 121.898438 243.699219 93.867188 227.535156 C 65.910156 211.371094 42.101562 187.96875 25.386719 159.054688 C 21.34375 152.039062 23.734375 143.074219 30.714844 139.03125 C 37.730469 134.953125 46.695312 137.34375 50.734375 144.359375 C 64.84375 168.789062 84.9375 188.519531 108.5625 202.183594 C 132.109375 215.777344 159.222656 223.273438 187.476562 223.273438 C 215.726562 223.273438 242.839844 215.777344 266.386719 202.183594 C 290.011719 188.519531 310.105469 168.789062 324.214844 144.359375 Z M 324.214844 144.359375 "/></g><path style=" stroke:none;fill-rule:nonzero;fill:#9e886d;fill-opacity:1;" d="M 52.019531 126.761719 C 59.039062 122.757812 67.964844 125.144531 71.96875 132.164062 C 76.011719 139.140625 73.585938 148.070312 66.605469 152.109375 L 24.101562 176.652344 C 17.121094 180.65625 8.15625 178.230469 4.152344 171.25 C 0.148438 164.234375 2.535156 155.308594 9.550781 151.304688 Z M 52.019531 126.761719 "/><path style=" stroke:none;fill-rule:nonzero;fill:#9e886d;fill-opacity:1;" d="M 308.34375 152.109375 C 301.363281 148.070312 298.9375 139.140625 302.980469 132.164062 C 306.984375 125.144531 315.910156 122.757812 322.929688 126.761719 L 365.398438 151.304688 C 372.414062 155.308594 374.800781 164.234375 370.796875 171.25 C 366.757812 178.230469 357.828125 180.65625 350.847656 176.652344 Z M 308.34375 152.109375 "/></g></svg>