<svg xmlns="http://www.w3.org/2000/svg" xmlns:xlink="http://www.w3.org/1999/xlink" width="500" zoomAndPan="magnify" viewBox="0 0 375 374.999991" height="500" preserveAspectRatio="xMidYMid meet" version="1.2"><defs><clipPath id="a86ac63405"><path d="M 212 0 L 261.9375 0 L 261.9375 375 L 212 375 Z M 212 0 "/></clipPath></defs><g id="8599dcfe4f"><g clip-rule="nonzero" clip-path="url(#a86ac63405)"><path style=" stroke:none;fill-rule:nonzero;fill:#9e886d;fill-opacity:1;" d="M 261.429688 0 C 261.429688 0 209.664062 16.742188 212.8125 199.152344 C 212.839844 200.414062 213.015625 201.652344 213.347656 202.871094 C 213.675781 204.089844 214.148438 205.25 214.761719 206.351562 C 215.371094 207.453125 216.109375 208.46875 216.96875 209.390625 C 217.828125 210.3125 218.785156 211.117188 219.84375 211.808594 L 230.089844 218.503906 C 230.878906 219.027344 231.632812 219.597656 232.347656 220.222656 C 233.058594 220.847656 233.726562 221.515625 234.351562 222.226562 C 234.976562 222.941406 235.546875 223.695312 236.070312 224.484375 C 236.589844 225.277344 237.058594 226.097656 237.46875 226.953125 C 237.878906 227.804688 238.230469 228.683594 238.523438 229.585938 C 238.816406 230.488281 239.046875 231.402344 239.214844 232.335938 C 239.382812 233.269531 239.488281 234.207031 239.53125 235.15625 C 239.570312 236.101562 239.550781 237.046875 239.464844 237.992188 L 228.347656 356.886719 C 228.300781 357.457031 228.285156 358.03125 228.296875 358.601562 C 228.308594 359.175781 228.347656 359.746094 228.417969 360.316406 C 228.488281 360.886719 228.589844 361.449219 228.714844 362.007812 C 228.84375 362.566406 229 363.117188 229.1875 363.660156 C 229.371094 364.203125 229.582031 364.734375 229.824219 365.253906 C 230.0625 365.777344 230.328125 366.28125 230.621094 366.777344 C 230.910156 367.269531 231.226562 367.746094 231.570312 368.207031 C 231.910156 368.667969 232.273438 369.113281 232.660156 369.535156 C 233.046875 369.960938 233.453125 370.363281 233.878906 370.746094 C 234.308594 371.125 234.753906 371.484375 235.21875 371.820312 C 235.683594 372.15625 236.164062 372.46875 236.660156 372.757812 C 237.15625 373.042969 237.664062 373.304688 238.1875 373.539062 C 238.710938 373.773438 239.246094 373.980469 239.789062 374.160156 C 240.332031 374.339844 240.886719 374.488281 241.445312 374.613281 C 242.007812 374.734375 242.570312 374.828125 243.140625 374.894531 C 243.710938 374.957031 244.28125 374.992188 244.855469 375 C 245.398438 374.996094 245.941406 374.960938 246.484375 374.902344 C 247.027344 374.84375 247.5625 374.761719 248.097656 374.648438 C 248.628906 374.539062 249.15625 374.402344 249.675781 374.238281 C 250.199219 374.078125 250.707031 373.890625 251.210938 373.679688 C 251.710938 373.464844 252.203125 373.230469 252.679688 372.96875 C 253.160156 372.710938 253.625 372.425781 254.074219 372.121094 C 254.527344 371.816406 254.960938 371.488281 255.378906 371.140625 C 255.800781 370.792969 256.203125 370.425781 256.585938 370.039062 C 256.96875 369.652344 257.332031 369.246094 257.675781 368.824219 C 258.019531 368.402344 258.339844 367.960938 258.640625 367.507812 C 258.941406 367.054688 259.222656 366.585938 259.476562 366.105469 C 259.730469 365.625 259.964844 365.132812 260.171875 364.628906 C 260.378906 364.125 260.558594 363.609375 260.71875 363.089844 C 260.875 362.566406 261.003906 362.039062 261.109375 361.503906 C 261.214844 360.96875 261.296875 360.433594 261.347656 359.890625 C 261.402344 359.347656 261.429688 358.804688 261.429688 358.257812 Z M 261.429688 0 "/></g><path style=" stroke:none;fill-rule:nonzero;fill:#9e886d;fill-opacity:1;" d="M 168.683594 98.035156 L 175.113281 98.035156 L 175.113281 0 L 185.15625 0 L 196.441406 106.574219 C 196.671875 108.445312 196.78125 110.324219 196.769531 112.207031 C 196.757812 114.09375 196.621094 115.96875 196.363281 117.835938 C 196.105469 119.703125 195.726562 121.546875 195.230469 123.367188 C 194.730469 125.183594 194.113281 126.960938 193.382812 128.699219 C 192.652344 130.4375 191.8125 132.117188 190.859375 133.746094 C 189.910156 135.375 188.855469 136.933594 187.699219 138.421875 C 186.542969 139.914062 185.296875 141.320312 183.957031 142.648438 C 182.621094 143.976562 181.199219 145.210938 179.699219 146.351562 C 178.09375 147.492188 176.410156 148.496094 174.644531 149.363281 C 173.394531 149.964844 172.261719 150.734375 171.238281 151.671875 C 170.21875 152.609375 169.355469 153.671875 168.644531 154.863281 C 167.9375 156.054688 167.414062 157.320312 167.078125 158.664062 C 166.742188 160.007812 166.609375 161.371094 166.675781 162.757812 L 175.882812 354.175781 C 175.910156 354.847656 175.902344 355.523438 175.859375 356.195312 C 175.820312 356.871094 175.746094 357.539062 175.636719 358.207031 C 175.527344 358.875 175.386719 359.53125 175.210938 360.183594 C 175.035156 360.835938 174.828125 361.476562 174.589844 362.109375 C 174.351562 362.738281 174.078125 363.359375 173.777344 363.960938 C 173.476562 364.566406 173.144531 365.152344 172.78125 365.722656 C 172.421875 366.292969 172.03125 366.84375 171.617188 367.375 C 171.199219 367.90625 170.757812 368.414062 170.289062 368.902344 C 169.820312 369.386719 169.332031 369.851562 168.816406 370.289062 C 168.300781 370.722656 167.765625 371.132812 167.210938 371.519531 C 166.65625 371.902344 166.082031 372.253906 165.488281 372.582031 C 164.898438 372.90625 164.292969 373.199219 163.671875 373.464844 C 163.050781 373.730469 162.417969 373.960938 161.773438 374.160156 C 161.128906 374.363281 160.472656 374.53125 159.8125 374.664062 C 159.152344 374.796875 158.484375 374.898438 157.8125 374.964844 C 157.140625 375.035156 156.46875 375.066406 155.792969 375.066406 C 155.121094 375.066406 154.449219 375.035156 153.777344 374.96875 C 153.109375 374.898438 152.445312 374.800781 151.785156 374.664062 C 151.125 374.53125 150.476562 374.363281 149.832031 374.160156 C 149.191406 373.960938 148.5625 373.726562 147.941406 373.464844 C 147.324219 373.199219 146.71875 372.902344 146.132812 372.578125 C 145.542969 372.25 144.972656 371.894531 144.417969 371.511719 C 143.867188 371.128906 143.335938 370.71875 142.824219 370.277344 C 142.3125 369.839844 141.824219 369.378906 141.363281 368.890625 C 140.898438 368.402344 140.460938 367.894531 140.046875 367.363281 C 139.636719 366.832031 139.25 366.277344 138.894531 365.707031 C 138.539062 365.136719 138.210938 364.550781 137.914062 363.945312 C 137.617188 363.34375 137.355469 362.726562 137.121094 362.09375 C 136.886719 361.464844 136.683594 360.820312 136.515625 360.171875 C 136.347656 359.519531 136.210938 358.859375 136.109375 358.195312 C 136.007812 357.53125 135.9375 356.863281 135.90625 356.191406 C 135.871094 355.519531 135.871094 354.847656 135.902344 354.175781 L 145.078125 162.757812 C 145.152344 161.371094 145.019531 160.007812 144.6875 158.660156 C 144.355469 157.3125 143.832031 156.042969 143.125 154.851562 C 142.414062 153.660156 141.546875 152.597656 140.523438 151.660156 C 139.5 150.726562 138.359375 149.960938 137.109375 149.363281 C 135.355469 148.496094 133.679688 147.492188 132.085938 146.351562 C 130.582031 145.210938 129.160156 143.980469 127.820312 142.652344 C 126.480469 141.328125 125.230469 139.921875 124.074219 138.429688 C 122.914062 136.941406 121.859375 135.382812 120.910156 133.753906 C 119.957031 132.128906 119.113281 130.445312 118.382812 128.707031 C 117.652344 126.96875 117.035156 125.191406 116.539062 123.371094 C 116.039062 121.550781 115.664062 119.707031 115.40625 117.839844 C 115.148438 115.972656 115.015625 114.09375 115.007812 112.207031 C 114.996094 110.324219 115.109375 108.445312 115.347656 106.574219 L 126.429688 0 L 136.472656 0 L 136.472656 98.035156 L 148.996094 98.035156 L 148.996094 0 L 162.386719 0 L 162.386719 98.035156 Z M 168.683594 98.035156 "/></g></svg>