<svg xmlns="http://www.w3.org/2000/svg" xmlns:xlink="http://www.w3.org/1999/xlink" width="500" zoomAndPan="magnify" viewBox="0 0 375 374.999991" height="500" preserveAspectRatio="xMidYMid meet" version="1.2"><defs><clipPath id="2aa6071edf"><path d="M 18 6 L 371.25 6 L 371.25 360 L 18 360 Z M 18 6 "/></clipPath></defs><g id="669b076216"><g clip-rule="nonzero" clip-path="url(#2aa6071edf)"><path style=" stroke:none;fill-rule:nonzero;fill:#fae9e1;fill-opacity:1;" d="M 356.796875 267.460938 L 321.585938 232.253906 C 320.003906 230.667969 318.316406 229.195312 316.535156 227.835938 C 314.75 226.480469 312.882812 225.25 310.929688 224.144531 C 308.980469 223.039062 306.964844 222.070312 304.882812 221.238281 C 302.800781 220.402344 300.671875 219.714844 298.5 219.167969 C 296.324219 218.625 294.121094 218.226562 291.894531 217.980469 C 289.667969 217.734375 287.433594 217.636719 285.191406 217.691406 C 282.949219 217.746094 280.722656 217.949219 278.507812 218.304688 C 276.292969 218.660156 274.113281 219.164062 271.96875 219.816406 C 269.824219 220.464844 267.730469 221.257812 265.691406 222.1875 C 263.65625 223.121094 261.6875 224.1875 259.792969 225.386719 C 257.898438 226.585938 256.09375 227.90625 254.378906 229.347656 C 252.660156 230.792969 251.050781 232.34375 249.542969 234.003906 C 248.039062 235.664062 246.648438 237.417969 245.378906 239.265625 C 244.109375 241.113281 242.972656 243.039062 241.964844 245.042969 C 240.953125 247.042969 240.085938 249.105469 239.355469 251.222656 C 238.621094 253.34375 238.039062 255.503906 237.601562 257.699219 C 179.542969 246.859375 123.082031 190.628906 119.601562 140.371094 C 121.816406 139.957031 123.996094 139.398438 126.140625 138.6875 C 128.28125 137.980469 130.363281 137.128906 132.390625 136.136719 C 134.414062 135.148438 136.363281 134.023438 138.234375 132.765625 C 140.109375 131.507812 141.886719 130.128906 143.574219 128.628906 C 145.257812 127.132812 146.832031 125.523438 148.300781 123.8125 C 149.765625 122.097656 151.109375 120.292969 152.332031 118.398438 C 153.550781 116.5 154.640625 114.53125 155.59375 112.488281 C 156.546875 110.441406 157.355469 108.34375 158.023438 106.1875 C 158.691406 104.035156 159.207031 101.84375 159.578125 99.621094 C 159.945312 97.394531 160.164062 95.15625 160.230469 92.898438 C 160.292969 90.644531 160.203125 88.398438 159.964844 86.15625 C 159.722656 83.914062 159.332031 81.695312 158.789062 79.507812 C 158.246094 77.320312 157.554688 75.175781 156.722656 73.082031 C 155.886719 70.984375 154.914062 68.957031 153.804688 66.992188 C 152.695312 65.03125 151.457031 63.152344 150.089844 61.355469 C 148.726562 59.5625 147.246094 57.867188 145.648438 56.273438 L 110.394531 21.082031 C 109.242188 19.929688 108.035156 18.835938 106.773438 17.800781 C 105.515625 16.769531 104.207031 15.796875 102.851562 14.894531 C 101.496094 13.988281 100.101562 13.152344 98.664062 12.382812 C 97.226562 11.613281 95.753906 10.917969 94.246094 10.296875 C 92.742188 9.671875 91.207031 9.125 89.648438 8.648438 C 88.089844 8.175781 86.507812 7.78125 84.910156 7.464844 C 83.3125 7.144531 81.703125 6.90625 80.078125 6.746094 C 78.457031 6.585938 76.832031 6.507812 75.203125 6.507812 C 73.570312 6.507812 71.945312 6.585938 70.324219 6.746094 C 68.703125 6.90625 67.089844 7.144531 65.492188 7.464844 C 63.894531 7.78125 62.3125 8.175781 60.753906 8.648438 C 59.195312 9.125 57.660156 9.671875 56.15625 10.296875 C 54.648438 10.917969 53.179688 11.613281 51.742188 12.382812 C 50.304688 13.152344 48.90625 13.988281 47.550781 14.894531 C 46.195312 15.796875 44.886719 16.769531 43.628906 17.800781 C 42.367188 18.835938 41.160156 19.929688 40.007812 21.082031 C -65.546875 126.675781 251.210938 443.429688 356.796875 337.835938 C 357.949219 336.683594 359.042969 335.480469 360.074219 334.21875 C 361.109375 332.960938 362.078125 331.652344 362.984375 330.296875 C 363.890625 328.941406 364.726562 327.546875 365.496094 326.109375 C 366.265625 324.671875 366.960938 323.199219 367.582031 321.691406 C 368.207031 320.1875 368.753906 318.65625 369.230469 317.09375 C 369.703125 315.535156 370.097656 313.957031 370.414062 312.355469 C 370.734375 310.757812 370.972656 309.148438 371.132812 307.527344 C 371.292969 305.90625 371.371094 304.277344 371.371094 302.648438 C 371.371094 301.019531 371.292969 299.394531 371.132812 297.769531 C 370.972656 296.148438 370.734375 294.539062 370.414062 292.941406 C 370.097656 291.339844 369.703125 289.761719 369.230469 288.203125 C 368.757812 286.644531 368.207031 285.109375 367.582031 283.605469 C 366.960938 282.097656 366.265625 280.628906 365.496094 279.191406 C 364.726562 277.753906 363.890625 276.355469 362.984375 275 C 362.078125 273.644531 361.109375 272.339844 360.074219 271.078125 C 359.042969 269.820312 357.949219 268.613281 356.796875 267.460938 "/></g></g></svg>