<?xml version="1.0" encoding="UTF-8"?>
<!DOCTYPE svg PUBLIC "-//W3C//DTD SVG 1.1//EN" "http://www.w3.org/Graphics/SVG/1.1/DTD/svg11.dtd">
<!-- Creator: CorelDRAW X8 -->
<svg xmlns="http://www.w3.org/2000/svg" xml:space="preserve" width="91.4398mm" height="91.4398mm" version="1.1" style="shape-rendering:geometricPrecision; text-rendering:geometricPrecision; image-rendering:optimizeQuality; fill-rule:evenodd; clip-rule:evenodd"
viewBox="0 0 9144 9144"
 xmlns:xlink="http://www.w3.org/1999/xlink">
 <defs>
  <style type="text/css">
   <![CDATA[
    .fil0 {fill:#E7E8DA}
   ]]>
  </style>
 </defs>
 <g id="Capa_x0020_1">
  <metadata id="CorelCorpID_0Corel-Layer"/>
  <path class="fil0" d="M4947 4259c87,-2 306,-260 488,-337 181,-77 325,27 264,387 -61,359 -327,975 -516,1316 -188,341 -300,407 -599,200 -299,-207 -786,-687 -1023,-1084 -237,-396 -224,-709 -152,-869 72,-159 202,-166 349,-13 146,153 309,466 412,668 103,201 146,291 144,66 -2,-225 -49,-767 24,-1047 72,-281 265,-301 387,-223 122,79 174,256 177,471 4,215 -41,468 45,465z"/>
 </g>
</svg>
