<svg xmlns="http://www.w3.org/2000/svg" xmlns:xlink="http://www.w3.org/1999/xlink" width="500" zoomAndPan="magnify" viewBox="0 0 375 374.999991" height="500" preserveAspectRatio="xMidYMid meet" version="1.2"><defs><clipPath id="4512241d95"><path d="M 78.300781 0 L 296.527344 0 L 296.527344 374.679688 L 78.300781 374.679688 Z M 78.300781 0 "/></clipPath></defs><g id="de172a5dfe"><g clip-rule="nonzero" clip-path="url(#4512241d95)"><path style=" stroke:none;fill-rule:nonzero;fill:#9e886d;fill-opacity:1;" d="M 291.714844 156 C 291.988281 155.21875 291.84375 154.417969 291.519531 153.964844 C 287.210938 147.867188 286.019531 142.941406 258.722656 103.765625 C 247.683594 85.660156 244.980469 83.609375 245.050781 83.703125 C 242.386719 80.167969 238.066406 71.128906 230.558594 62.089844 C 227.183594 58.046875 203.757812 24.648438 200.855469 21.171875 C 193.796875 11.824219 190.65625 4.804688 185.664062 0.00390625 L 185.648438 0 C 185.644531 0 185.636719 0.00390625 185.632812 0.00390625 C 179.476562 7.601562 181.699219 4.21875 158.3125 33.339844 C 162.449219 28.476562 141.621094 55.292969 139.042969 58.597656 C 138.96875 58.695312 104.929688 107.457031 104.859375 107.558594 C 103.332031 109.816406 79.371094 149.097656 79.34375 149.242188 C 78.152344 150.265625 78.652344 148.496094 78.625 173.058594 C 78.617188 178.351562 77.207031 203.527344 80.316406 258.945312 C 80.464844 261.558594 80.957031 281.601562 80.953125 281.503906 C 80.960938 281.601562 80.988281 282.296875 80.984375 282.199219 C 80.988281 282.296875 81.03125 283.242188 81.027344 283.140625 C 81.03125 283.242188 81.117188 285.433594 81.109375 285.300781 C 81.1875 287.589844 81.222656 289.738281 81.253906 291.808594 C 81.253906 291.902344 81.257812 292.269531 81.257812 292.171875 C 81.257812 292.269531 81.261719 292.636719 81.257812 292.535156 C 81.261719 292.636719 81.285156 294.039062 81.28125 293.9375 C 81.820312 328.304688 83.117188 350.730469 83.113281 350.632812 C 83.117188 350.730469 83.140625 351.054688 83.136719 350.957031 C 83.582031 358.320312 83.253906 358.914062 83.875 371.84375 C 84.917969 372.742188 84.949219 372.816406 85.660156 373.335938 C 94.167969 375.109375 116.222656 374.617188 116.324219 374.609375 C 153.921875 373.035156 163.753906 376.324219 221.566406 372.101562 C 301.808594 366.167969 255.230469 371.195312 291.695312 365.945312 C 292.152344 365.644531 293.566406 364.988281 293.664062 364.949219 C 294.816406 362.898438 295.179688 361.832031 295.722656 360.382812 C 298.378906 299.726562 293.75 169.800781 291.714844 156 "/></g><path style=" stroke:none;fill-rule:nonzero;fill:#ffffff;fill-opacity:1;" d="M 174.351562 161.671875 C 179.929688 169.277344 177.441406 165.914062 182.851562 172.914062 C 183.589844 173.933594 183.960938 174.988281 185.191406 175.5625 C 186.191406 176.039062 187.171875 176.101562 188.191406 175.617188 C 192.726562 173.46875 219.675781 133.800781 210.480469 127.667969 C 208.726562 126.425781 206.183594 126.28125 203.511719 128.308594 C 199.574219 131.269531 200.972656 130.175781 196.695312 135.546875 C 193.3125 139.90625 188.589844 146.6875 186.355469 150.917969 L 186.085938 150.089844 C 182.476562 139.621094 172.421875 117.902344 162.523438 123.601562 C 154.75 128.039062 169.429688 154.980469 174.351562 161.671875 "/><path style=" stroke:none;fill-rule:nonzero;fill:#ffffff;fill-opacity:1;" d="M 284.253906 156.066406 C 280.742188 150.1875 282.566406 151.339844 277.226562 144.027344 C 274.320312 140.042969 273.203125 137.296875 268.109375 131.253906 C 264.351562 126.816406 270.386719 134.058594 250.554688 108.417969 C 227.035156 77.84375 218.214844 58.800781 202.851562 36.996094 C 194.320312 24.953125 196.980469 26.457031 191.371094 20.046875 C 189.691406 18.128906 188.050781 15.910156 185.640625 16.351562 C 182.253906 15.535156 180.230469 18.582031 173.425781 28.953125 C 167.078125 38.621094 110.183594 116.203125 110.117188 116.304688 C 98.726562 133.625 95.507812 135.730469 85.789062 151.738281 C 85.03125 152.992188 85.1875 154.566406 86.007812 155.695312 C 86.710938 158.261719 90.15625 159.753906 93.003906 156.839844 C 100.175781 149.5625 127.746094 110.238281 138.660156 93.898438 C 166.066406 52.882812 177.949219 37.371094 184.707031 27 C 188.042969 32.40625 190.289062 34.132812 197.808594 45.800781 C 207.398438 60.734375 227.476562 88.558594 234.277344 99.46875 C 243.554688 114.441406 249.132812 119.59375 255.515625 129.40625 C 257.933594 133.148438 266.894531 144.261719 268.734375 146.328125 C 277.621094 156.3125 276.921875 157.394531 280.027344 160.351562 C 281.835938 162.070312 284.253906 161.390625 284.992188 159.261719 C 285.378906 158.144531 284.816406 157.007812 284.253906 156.066406 "/><path style=" stroke:none;fill-rule:nonzero;fill:#ffffff;fill-opacity:1;" d="M 185.234375 276.210938 C 178.5625 276.125 166.136719 278.472656 161.015625 278.882812 C 155.820312 279.308594 154.773438 279.070312 149.296875 279.527344 C 152.886719 267.367188 159.035156 260.148438 166.296875 254.441406 C 174.101562 248.613281 188.949219 245.15625 198.359375 248.71875 C 205.960938 251.996094 206.566406 251.480469 207.890625 252.359375 C 217.367188 258.648438 222.511719 265.941406 225.992188 276.203125 C 219.113281 275.347656 191.816406 276.296875 185.234375 276.210938 Z M 242.058594 338.019531 C 239.890625 314.21875 245.214844 266.230469 213.960938 246.761719 C 212.882812 246.097656 211.746094 245.59375 210.570312 245.175781 C 206.328125 242.664062 197.984375 239.296875 192.726562 239.476562 C 180.648438 239.878906 179.5 240.128906 175.476562 241.371094 C 169.117188 243.347656 169.175781 243.375 159.691406 249.574219 C 140.242188 262.257812 132.21875 309.617188 132.003906 333.316406 C 131.964844 337.910156 131.257812 359.390625 133.066406 362.976562 C 133.683594 364.195312 135.335938 365.050781 136.925781 364.753906 C 138.976562 365.082031 140.832031 363.40625 140.78125 361.46875 C 139.710938 322.65625 142.886719 306.660156 147.230469 287.660156 C 153.207031 287.257812 163.988281 286.164062 177.578125 285.699219 C 181.957031 285.546875 180.652344 285.636719 184.632812 285.378906 C 184.933594 289.144531 185.136719 293.027344 185.074219 296.789062 C 184.03125 356.125 181.808594 360.980469 187.511719 362.40625 C 189.140625 362.636719 190.9375 361.589844 191.335938 359.347656 C 193.59375 346.5625 195.1875 302.300781 194.996094 284.828125 C 200.527344 284.539062 224.023438 284.519531 224.125 284.511719 C 225.445312 284.441406 226.609375 284.222656 227.953125 284.171875 C 233.792969 313.039062 231.105469 302.941406 234.671875 339.257812 C 234.917969 341.734375 234.441406 355.472656 234.6875 358.644531 C 234.714844 363.226562 241.21875 363.578125 242.0625 359.644531 C 242.332031 358.363281 242.945312 351.382812 242.523438 343.382812 C 242.425781 341.59375 242.222656 339.808594 242.058594 338.019531 "/><path style=" stroke:none;fill-rule:nonzero;fill:#ffffff;fill-opacity:1;" d="M 195.0625 288.90625 C 195.0625 288.976562 195.054688 288.65625 195.085938 289.914062 C 195.078125 289.578125 195.066406 289.242188 195.0625 288.90625 "/><path style=" stroke:none;fill-rule:nonzero;fill:#ffffff;fill-opacity:1;" d="M 185.324219 256.382812 C 184.078125 256.960938 183.390625 258.449219 183.003906 259.757812 C 182.828125 260.335938 182.1875 261.210938 182.160156 262.808594 C 182.070312 268.828125 193.132812 271.550781 193.992188 262.46875 C 194.316406 259.117188 190.917969 253.792969 185.324219 256.382812 "/></g></svg>