<svg xmlns="http://www.w3.org/2000/svg" xmlns:xlink="http://www.w3.org/1999/xlink" width="500" zoomAndPan="magnify" viewBox="0 0 375 374.999991" height="500" preserveAspectRatio="xMidYMid meet" version="1.2"><g id="dc036d0ca3"><path style=" stroke:none;fill-rule:nonzero;fill:#9e886d;fill-opacity:1;" d="M 166.3125 154.242188 C 164.976562 153.910156 163.613281 153.6875 162.363281 153.1875 C 160.277344 152.355469 159.054688 150.742188 159.863281 148.519531 C 160.585938 146.574219 160.363281 145.765625 158.417969 144.683594 C 140.292969 134.507812 127.175781 119.417969 117.03125 101.597656 C 111.21875 91.453125 106.1875 80.917969 103.605469 69.410156 C 100.6875 56.460938 100.492188 43.589844 105.050781 30.886719 C 111.691406 12.375 128.007812 0.703125 147.660156 0.230469 C 155.304688 0.0625 162.78125 0.421875 169.8125 3.980469 C 176.179688 7.207031 181.238281 11.902344 185.738281 17.324219 C 187.183594 19.074219 188.574219 20.882812 189.9375 22.714844 C 191.050781 24.214844 192.132812 24.496094 193.746094 23.300781 C 196.414062 21.296875 199.191406 19.4375 202 17.628906 C 209.589844 12.792969 217.953125 10.207031 226.960938 10.570312 C 239.078125 11.070312 250.308594 14.238281 259.230469 23.105469 C 265.597656 29.414062 269.125 37.167969 270.683594 45.898438 C 274.492188 66.964844 267.960938 85.199219 254.699219 101.238281 C 238.578125 120.75 217.816406 133.871094 194.523438 143.238281 C 189.4375 145.265625 184.101562 146.40625 178.652344 146.988281 C 177.511719 147.101562 176.289062 146.878906 175.957031 148.65625 C 174.925781 154.078125 174.84375 154.078125 169.394531 154.300781 C 168.394531 154.273438 167.339844 154.273438 166.3125 154.242188 Z M 115.917969 32.164062 C 115.835938 36.195312 116.917969 38.140625 119.167969 39.058594 C 121.226562 39.894531 123.867188 39.144531 125.703125 37.058594 C 127.148438 35.445312 128.007812 33.472656 128.84375 31.554688 C 130.511719 27.691406 133.039062 24.523438 136.320312 21.992188 C 138.238281 20.519531 140.292969 19.242188 142.296875 17.851562 C 143.964844 16.683594 144.464844 14.988281 144.128906 13.042969 C 143.796875 11.097656 142.296875 10.320312 140.65625 9.875 C 138.710938 9.347656 136.792969 9.484375 134.847656 10.097656 C 128.621094 12.097656 124.089844 16.238281 120.558594 21.492188 C 118.195312 24.996094 116.140625 28.746094 115.917969 32.164062 Z M 115.917969 32.164062 "/><path style=" stroke:none;fill-rule:nonzero;fill:#9e886d;fill-opacity:1;" d="M 166.3125 154.242188 C 167.339844 154.273438 168.394531 154.273438 169.425781 154.300781 C 171.953125 166.78125 169.644531 178.730469 165.617188 190.515625 C 161.585938 202.273438 157.554688 214.058594 155.527344 226.375 C 154.386719 233.265625 153.773438 240.214844 154.082031 247.21875 C 154.554688 258.8125 158.722656 268.734375 166.839844 277.042969 C 170.339844 280.628906 174.234375 283.769531 178.011719 287.078125 C 180.875 289.582031 183.738281 292.082031 186.460938 294.695312 C 198.109375 305.894531 203.054688 319.40625 200.445312 335.527344 C 198.832031 345.421875 196.664062 355.179688 193.4375 364.683594 C 192.464844 367.574219 191.300781 370.355469 189.546875 372.882812 C 188.964844 373.71875 188.351562 374.914062 187.074219 374.273438 C 185.738281 373.632812 186.296875 372.496094 186.796875 371.550781 C 192.242188 361.375 194.355469 350.175781 196.582031 339 C 197.496094 334.386719 198.109375 329.71875 197.886719 324.992188 C 197.359375 314.652344 192.855469 306.089844 185.878906 298.667969 C 181.402344 293.917969 176.261719 289.859375 171.3125 285.605469 C 167.507812 282.351562 163.863281 278.90625 160.75 274.960938 C 152.246094 264.230469 150.078125 251.777344 150.914062 238.519531 C 151.886719 223.09375 156.054688 208.363281 161.113281 193.851562 C 162.308594 190.40625 163.363281 186.929688 164.449219 183.457031 C 167.394531 173.867188 168.367188 164.140625 166.3125 154.242188 Z M 166.3125 154.242188 "/><path style=" stroke:none;fill-rule:nonzero;fill:#9e886d;fill-opacity:1;" d="M 115.917969 32.164062 C 116.140625 28.746094 118.195312 24.996094 120.558594 21.464844 C 124.089844 16.210938 128.648438 12.070312 134.847656 10.070312 C 136.792969 9.429688 138.738281 9.316406 140.65625 9.847656 C 142.296875 10.289062 143.796875 11.070312 144.128906 13.015625 C 144.464844 14.960938 143.964844 16.628906 142.296875 17.824219 C 140.320312 19.214844 138.238281 20.492188 136.320312 21.964844 C 133.039062 24.523438 130.511719 27.691406 128.84375 31.527344 C 128.007812 33.472656 127.148438 35.445312 125.703125 37.03125 C 123.839844 39.085938 121.226562 39.867188 119.167969 39.03125 C 116.917969 38.140625 115.835938 36.195312 115.917969 32.164062 Z M 115.917969 32.164062 "/></g></svg>