<svg xmlns="http://www.w3.org/2000/svg" xmlns:xlink="http://www.w3.org/1999/xlink" width="500" zoomAndPan="magnify" viewBox="0 0 375 374.999991" height="500" preserveAspectRatio="xMidYMid meet" version="1.2"><g id="c011c5f0e5"><path style=" stroke:none;fill-rule:nonzero;fill:#9e886d;fill-opacity:1;" d="M 171.53125 196.273438 C 208.417969 207.242188 248.417969 178.003906 247.839844 138.472656 C 244.550781 58.875 130.980469 58.882812 127.695312 138.472656 C 127.695312 165.9375 146.269531 189.191406 171.53125 196.273438 Z M 171.53125 196.273438 "/><path style=" stroke:none;fill-rule:nonzero;fill:#9e886d;fill-opacity:1;" d="M 284.589844 292.496094 C 276.707031 246.253906 236.277344 210.972656 187.765625 210.972656 C 132.976562 210.570312 87.105469 257.765625 89.875 311.339844 C 90.742188 314.011719 93.28125 315.816406 96.15625 315.816406 L 279.378906 315.816406 C 290.402344 314.886719 284.949219 299.503906 284.589844 292.496094 Z M 284.589844 292.496094 "/><path style=" stroke:none;fill-rule:nonzero;fill:#9e886d;fill-opacity:1;" d="M 304.371094 216.1875 C 328.558594 216.1875 348.269531 196.472656 348.269531 172.285156 C 346.066406 114.214844 262.664062 114.230469 260.46875 172.285156 C 260.46875 196.472656 280.179688 216.1875 304.371094 216.1875 Z M 304.371094 216.1875 "/><path style=" stroke:none;fill-rule:nonzero;fill:#9e886d;fill-opacity:1;" d="M 304.371094 220.863281 C 291.941406 220.863281 279.644531 224.136719 268.953125 230.351562 C 272.09375 233.625 274.96875 237.167969 277.640625 240.84375 C 289.695312 257.109375 297.222656 277.324219 298.6875 297.976562 C 298.6875 297.976562 368.183594 297.976562 368.183594 297.976562 C 371.859375 297.976562 374.867188 294.96875 374.867188 291.292969 C 374.867188 252.46875 343.257812 220.863281 304.371094 220.863281 Z M 304.371094 220.863281 "/><path style=" stroke:none;fill-rule:nonzero;fill:#9e886d;fill-opacity:1;" d="M 71.164062 216.1875 C 95.351562 216.1875 115.066406 196.472656 115.066406 172.285156 C 112.863281 114.214844 29.457031 114.230469 27.261719 172.285156 C 27.261719 196.472656 46.976562 216.1875 71.164062 216.1875 Z M 71.164062 216.1875 "/><path style=" stroke:none;fill-rule:nonzero;fill:#9e886d;fill-opacity:1;" d="M 106.578125 230.351562 C 61.015625 202.882812 -0.28125 238.003906 0.667969 291.292969 C 0.667969 294.96875 3.675781 297.976562 7.351562 297.976562 L 76.84375 297.976562 C 78.652344 272.617188 89.40625 248.550781 106.578125 230.351562 Z M 106.578125 230.351562 "/></g></svg>