<svg xmlns="http://www.w3.org/2000/svg" xmlns:xlink="http://www.w3.org/1999/xlink" width="500" zoomAndPan="magnify" viewBox="0 0 375 374.999991" height="500" preserveAspectRatio="xMidYMid meet" version="1.2"><defs><clipPath id="ad0d216943"><path d="M 33.75 150 L 252 150 L 252 375 L 33.75 375 Z M 33.75 150 "/></clipPath><clipPath id="c90235c9dd"><path d="M 120 84 L 341.25 84 L 341.25 332 L 120 332 Z M 120 84 "/></clipPath></defs><g id="960a3f94ba"><path style=" stroke:none;fill-rule:nonzero;fill:#9e886d;fill-opacity:1;" d="M 188.527344 38.429688 C 188.527344 59.671875 171.320312 76.90625 150.078125 76.90625 C 128.839844 76.90625 111.625 59.671875 111.625 38.429688 C 111.625 17.191406 128.835938 0 150.074219 0 C 171.316406 0 188.527344 17.1875 188.527344 38.429688 Z M 188.527344 38.429688 "/><g clip-rule="nonzero" clip-path="url(#ad0d216943)"><path style=" stroke:none;fill-rule:nonzero;fill:#9e886d;fill-opacity:1;" d="M 151 350.34375 C 100.023438 350.34375 58.570312 308.886719 58.570312 257.933594 C 58.570312 223.582031 77.613281 193.898438 105.472656 177.980469 L 105.472656 150.097656 C 63.476562 167.871094 33.9375 209.519531 33.9375 257.933594 C 33.9375 322.457031 86.429688 375 151 375 C 193.847656 375 231.03125 351.515625 251.390625 317.039062 L 238.746094 285.378906 C 226.980469 322.898438 192.359375 350.34375 151 350.34375 Z M 151 350.34375 "/></g><g clip-rule="nonzero" clip-path="url(#c90235c9dd)"><path style=" stroke:none;fill-rule:nonzero;fill:#9e886d;fill-opacity:1;" d="M 322.683594 294.117188 L 294.898438 294.117188 C 294.898438 294.117188 278.082031 246.140625 273.367188 233.398438 C 270.335938 224.976562 262.453125 218.851562 252.980469 218.851562 L 185.523438 218.851562 L 185.523438 171.679688 L 249.515625 171.679688 C 257.984375 171.679688 264.871094 164.84375 264.871094 156.347656 C 264.871094 147.855469 257.984375 140.917969 249.515625 140.917969 L 185.523438 140.917969 C 185.523438 140.917969 181.835938 84.960938 150.074219 84.960938 C 128.320312 84.960938 120.875 102.609375 120.875 124.363281 L 120.875 223.144531 C 120.875 244.921875 138.546875 262.597656 160.277344 262.597656 C 160.9375 262.597656 161.476562 262.253906 162.109375 262.253906 C 162.71875 262.277344 163.277344 262.597656 163.9375 262.597656 L 246.214844 262.597656 L 273.582031 331.003906 L 322.679688 331.003906 C 332.835938 331.003906 341.109375 322.730469 341.109375 312.546875 C 341.113281 302.34375 332.839844 294.117188 322.683594 294.117188 Z M 322.683594 294.117188 "/></g></g></svg>