<svg xmlns="http://www.w3.org/2000/svg" xmlns:xlink="http://www.w3.org/1999/xlink" width="500" zoomAndPan="magnify" viewBox="0 0 375 374.999991" height="500" preserveAspectRatio="xMidYMid meet" version="1.2"><defs><clipPath id="1e7d9c32d2"><path d="M 54.546875 0 L 320.796875 0 L 320.796875 375 L 54.546875 375 Z M 54.546875 0 "/></clipPath></defs><g id="9b2ee31541"><g clip-rule="nonzero" clip-path="url(#1e7d9c32d2)"><path style=" stroke:none;fill-rule:nonzero;fill:#fae9e1;fill-opacity:1;" d="M 187.535156 0 C 114.3125 0 54.742188 59.570312 54.742188 132.792969 C 54.742188 160.789062 61.445312 190.886719 74.667969 222.25 C 85.097656 246.992188 99.601562 272.613281 117.777344 298.394531 C 148.589844 342.109375 178.996094 370.914062 180.273438 372.121094 C 182.316406 374.042969 184.925781 375 187.53125 375 C 190.210938 375 192.882812 373.992188 194.9375 371.980469 C 196.214844 370.730469 226.558594 340.875 257.328125 296.660156 C 299.128906 236.59375 320.324219 181.457031 320.324219 132.792969 C 320.324219 59.570312 260.753906 0 187.535156 0 Z M 187.535156 178.351562 C 157.386719 178.351562 132.859375 153.824219 132.859375 123.675781 C 132.859375 93.53125 157.386719 69.003906 187.535156 69.003906 C 217.679688 69.003906 242.207031 93.53125 242.207031 123.675781 C 242.207031 153.824219 217.679688 178.351562 187.535156 178.351562 Z M 187.535156 178.351562 "/></g></g></svg>