<svg xmlns="http://www.w3.org/2000/svg" xmlns:xlink="http://www.w3.org/1999/xlink" width="500" zoomAndPan="magnify" viewBox="0 0 375 374.999991" height="500" preserveAspectRatio="xMidYMid meet" version="1.2"><defs><clipPath id="8fae47f52e"><path d="M 0 86 L 375 86 L 375 302.953125 L 0 302.953125 Z M 0 86 "/></clipPath></defs><g id="c8c1b176e4"><g clip-rule="nonzero" clip-path="url(#8fae47f52e)"><path style=" stroke:none;fill-rule:nonzero;fill:#fae9e1;fill-opacity:1;" d="M 372.191406 86.707031 C 371.695312 87.300781 371.136719 87.863281 370.4375 88.359375 C 364.847656 92.355469 359.265625 96.347656 353.675781 100.34375 L 191.65625 216.152344 C 189.34375 217.8125 185.160156 217.800781 182.84375 216.152344 L 20.828125 101.113281 C 15.070312 97.023438 9.308594 92.933594 3.554688 88.84375 C 2.945312 88.414062 2.429688 87.9375 1.976562 87.441406 C 0.625 90.539062 -0.132812 93.945312 -0.132812 97.53125 L -0.132812 277.023438 C -0.132812 290.988281 11.222656 302.347656 25.179688 302.347656 L 349.320312 302.347656 C 363.28125 302.347656 374.636719 290.988281 374.636719 277.023438 L 374.636719 97.53125 C 374.636719 93.746094 373.777344 90.058594 372.191406 86.707031 Z M 372.191406 86.707031 "/></g><path style=" stroke:none;fill-rule:nonzero;fill:#fae9e1;fill-opacity:1;" d="M 187.234375 197.933594 C 241.839844 158.902344 296.445312 119.867188 351.046875 80.839844 C 353.988281 78.738281 356.933594 76.632812 359.871094 74.527344 C 356.585938 73.019531 352.988281 72.207031 349.316406 72.207031 L 25.175781 72.207031 C 21.136719 72.207031 17.324219 73.183594 13.929688 74.875 C 16.9375 77.011719 19.945312 79.148438 22.953125 81.285156 Z M 187.234375 197.933594 "/></g></svg>