<?xml version="1.0" encoding="UTF-8"?>
<!DOCTYPE svg PUBLIC "-//W3C//DTD SVG 1.1//EN" "http://www.w3.org/Graphics/SVG/1.1/DTD/svg11.dtd">
<!-- Creator: CorelDRAW X8 -->
<svg xmlns="http://www.w3.org/2000/svg" xml:space="preserve" width="200mm" height="200mm" version="1.1" style="shape-rendering:geometricPrecision; text-rendering:geometricPrecision; image-rendering:optimizeQuality; fill-rule:evenodd; clip-rule:evenodd"
viewBox="0 0 9144 9144"
 xmlns:xlink="http://www.w3.org/1999/xlink">
 <defs>
  <style type="text/css">
   <![CDATA[
    .fil0 {fill:#FAE9E1}
   ]]>
  </style>
 </defs>
 <g id="Capa_x0020_1">
  <metadata id="CorelCorpID_0Corel-Layer"/>
  <path class="fil0" d="M4629 4347l0 0zm-1830 -259l0 -98c4,-59 15,-120 35,-181 88,-285 294,-443 612,-439 244,4 631,228 707,343 97,-23 159,-21 241,17 62,30 56,11 178,-62 995,-594 1389,-17 1243,388 -93,258 -455,375 -722,377 -248,2 -290,-45 -464,-86 70,131 195,163 334,228 78,37 115,50 187,93 245,146 570,560 611,750l-46 52c-98,-23 -130,-120 -232,-122 -88,131 43,159 -146,159 0,-582 -563,-539 -833,-778 -138,-123 -140,-236 -192,-345 -56,0 -83,6 -122,-12l-195 366c-119,218 -320,509 -401,721 -112,293 -34,435 -160,437 -71,1 -76,-73 -147,-121 -50,13 -64,45 -86,85 -46,-10 -51,-25 -97,-36 10,-121 106,-346 154,-444 148,-295 402,-572 617,-860 23,-32 35,-56 56,-90 22,-34 41,-51 51,-95 -142,33 -475,250 -857,162 -198,-46 -311,-206 -326,-409zm1183 247l0 0zm1160 -171c-432,0 -357,-77 -549,-122l0 -85c55,-30 93,-55 145,-86 52,-32 103,-57 160,-85 127,-65 458,-183 609,-60 79,65 74,109 74,194 0,148 -278,244 -439,244zm-1233 -85c-17,4 -854,409 -854,-25 0,-113 44,-227 92,-298 128,-189 408,-133 567,-43 123,70 140,97 232,158 -20,84 -37,95 -37,208z"/>
 </g>
</svg>
