<?xml version="1.0" encoding="UTF-8"?>
<!DOCTYPE svg PUBLIC "-//W3C//DTD SVG 1.1//EN" "http://www.w3.org/Graphics/SVG/1.1/DTD/svg11.dtd">
<!-- Creator: CorelDRAW X8 -->
<svg xmlns="http://www.w3.org/2000/svg" xml:space="preserve" width="91.4398mm" height="91.4398mm" version="1.1" style="shape-rendering:geometricPrecision; text-rendering:geometricPrecision; image-rendering:optimizeQuality; fill-rule:evenodd; clip-rule:evenodd"
viewBox="0 0 9144 9144"
 xmlns:xlink="http://www.w3.org/1999/xlink">
 <defs>
  <style type="text/css">
   <![CDATA[
    .fil0 {fill:black}
   ]]>
  </style>
 </defs>
 <g id="Capa_x0020_1">
  <metadata id="CorelCorpID_0Corel-Layer"/>
  <path class="fil0" d="M3957 3534c145,-63 367,-690 641,-1007 274,-317 599,-324 724,-144 125,181 48,548 -55,808 -104,259 -236,412 -298,474 -63,63 -56,35 142,-29 198,-64 586,-165 926,-130 340,34 630,204 749,409 119,204 67,443 -199,578 -267,135 -749,167 -955,189 -206,23 -137,36 36,153 173,117 450,337 531,609 82,272 -32,596 -189,770 -156,174 -355,199 -558,124 -203,-74 -409,-247 -547,-433 -137,-185 -207,-383 -241,-221 -35,161 -35,680 -222,949 -187,268 -561,286 -799,210 -237,-75 -338,-243 -365,-454 -28,-212 17,-466 60,-615 44,-148 85,-189 -35,-159 -121,31 -404,134 -691,147 -288,14 -580,-61 -736,-256 -156,-195 -176,-510 -54,-763 121,-253 383,-444 614,-515 232,-71 433,-22 478,-29 45,-7 -66,-69 -192,-260 -127,-191 -269,-509 -258,-797 10,-287 173,-544 400,-630 227,-87 518,-4 698,289 180,293 249,795 395,733z"/>
 </g>
</svg>
