<?xml version="1.0" encoding="UTF-8"?>
<!DOCTYPE svg PUBLIC "-//W3C//DTD SVG 1.1//EN" "http://www.w3.org/Graphics/SVG/1.1/DTD/svg11.dtd">
<!-- Creator: CorelDRAW X8 -->
<svg xmlns="http://www.w3.org/2000/svg" xml:space="preserve" width="91.4398mm" height="91.4398mm" version="1.1" style="shape-rendering:geometricPrecision; text-rendering:geometricPrecision; image-rendering:optimizeQuality; fill-rule:evenodd; clip-rule:evenodd"
viewBox="0 0 9144 9144"
 xmlns:xlink="http://www.w3.org/1999/xlink">
 <defs>
  <style type="text/css">
   <![CDATA[
    .fil0 {fill:#E7E8DA}
   ]]>
  </style>
 </defs>
 <g id="Capa_x0020_1">
  <metadata id="CorelCorpID_0Corel-Layer"/>
  <g id="_2498058889728">
   <path class="fil0" d="M3518 3648c-60,123 -111,304 -146,714 -35,410 -55,1050 160,1450 215,400 665,562 991,620 327,58 531,12 664,12 133,0 195,46 225,23 29,-23 27,-113 114,-229 88,-116 266,-258 280,-673 15,-416 -135,-1107 -495,-1507 -359,-400 -928,-511 -1229,-573 -301,-62 -335,-76 -386,-51 -51,26 -119,91 -178,214z"/>
   <path class="fil0" d="M3767 3576c-16,-79 -90,-202 -137,-318 -47,-116 -69,-225 -77,-299 -8,-74 -4,-114 -8,-141 -3,-27 -15,-41 -41,-53 -27,-13 -70,-25 -85,4 -16,28 -5,96 7,148 11,53 22,89 15,112 -7,23 -32,31 -66,89 -33,58 -74,166 -125,265 -52,99 -114,189 -164,318 -49,129 -86,296 -115,455 -29,160 -50,313 -60,422 -10,109 -9,174 100,-20 109,-194 326,-646 435,-923 108,-276 110,-377 118,-355 7,22 22,166 45,260 23,94 56,138 93,143 38,5 80,-29 65,-107z"/>
  </g>
 </g>
</svg>
