<?xml version="1.0" encoding="UTF-8"?>
<!DOCTYPE svg PUBLIC "-//W3C//DTD SVG 1.1//EN" "http://www.w3.org/Graphics/SVG/1.1/DTD/svg11.dtd">
<!-- Creator: CorelDRAW X8 -->
<svg xmlns="http://www.w3.org/2000/svg" xml:space="preserve" width="91.4398mm" height="91.4398mm" version="1.1" style="shape-rendering:geometricPrecision; text-rendering:geometricPrecision; image-rendering:optimizeQuality; fill-rule:evenodd; clip-rule:evenodd"
viewBox="0 0 9144 9144"
 xmlns:xlink="http://www.w3.org/1999/xlink">
 <defs>
  <style type="text/css">
   <![CDATA[
    .fil0 {fill:#C8B49B}
   ]]>
  </style>
 </defs>
 <g id="Capa_x0020_1">
  <metadata id="CorelCorpID_0Corel-Layer"/>
  <g id="_2497867271072">
   <g>
    <path class="fil0" d="M5174 4655c-103,107 -312,154 -388,-13 -80,-175 88,-321 243,-328 -4,77 -2,158 26,220 38,87 83,93 119,121zm-3371 -156c123,-34 209,106 56,168 -139,57 -205,-126 -56,-168zm5219 -174c240,-75 93,390 -105,408 -150,13 -171,-117 -112,-224 45,-82 116,-153 217,-184zm-1834 237c-84,-3 -112,-152 -90,-216 24,5 24,16 36,41 21,45 56,127 54,175zm-2919 -711c-25,-84 89,-207 132,-166 50,48 -36,179 -132,166zm-50 80c117,-6 133,4 202,-68 154,-162 -18,-331 -120,-230 -81,80 -57,137 -104,165 -5,-28 -14,-138 -18,-154 -12,-38 -69,-46 -70,39 -2,178 41,151 39,209 -3,65 -107,550 -142,607 -29,-15 -41,-41 -87,-60 -237,-95 -401,246 -145,307 102,24 155,-25 207,-74 29,10 54,35 87,56 208,133 453,108 645,-41 32,-25 50,-49 80,-67 6,105 -11,254 138,200 95,-33 155,-99 210,-153 34,-32 55,-60 84,-102 24,-33 119,-292 301,-225 45,156 -201,480 -150,522 59,49 241,-338 356,-431 32,-26 128,-97 181,-63 51,108 -183,397 -117,506 46,23 59,-15 81,-45 60,-82 419,-609 482,-408 33,101 -207,365 -40,403 140,32 308,-148 370,-193 24,27 78,188 271,203 139,11 263,-86 306,-168 286,9 332,-197 367,-241 119,-151 283,-224 258,68 -4,53 -18,115 -32,167 -14,52 -50,117 20,131 44,-30 89,-197 166,-317 78,-122 212,-194 264,-47 33,94 -93,320 64,368 80,25 265,-130 299,-166 8,7 3,1 12,16 26,50 26,113 152,157 128,44 158,-43 250,-66 30,20 84,116 240,7 193,-133 183,-344 97,-276 0,0 -49,97 -59,111 -31,47 -101,156 -191,140 -54,-60 -10,-103 14,-165 162,-413 -227,-362 -410,-165 -71,77 -271,349 -361,314 -104,-50 63,-312 -99,-418 -93,-60 -220,18 -286,84 -21,20 -35,51 -65,68 -4,-110 -7,-201 -103,-228 -152,-43 -294,156 -352,273 -29,58 -114,123 -214,105 -38,-71 -25,-216 -153,-311 -109,-80 -237,-30 -330,40 -151,114 -93,169 -192,263 -43,41 -185,189 -274,174 -24,-80 204,-397 4,-459 -158,-48 -303,212 -360,243 -7,-103 -6,-278 -129,-262 -108,13 -164,118 -237,155 4,-113 -21,-236 -156,-201 -170,43 -286,258 -370,356 -27,32 -143,172 -210,140 -95,-77 90,-420 83,-472l-72 -2c-22,27 -40,99 -50,136 -16,55 -22,49 -68,117 -149,224 -531,357 -726,84 8,-39 39,-102 53,-159 41,-164 55,-315 109,-497z"/>
    <path class="fil0" d="M3020 4072c26,-38 50,-129 -40,-98 -40,13 -59,111 40,98z"/>
   </g>
  </g>
  <g id="_2497867273088">
   <g>
    <path class="fil0" d="M5174 4655c-103,107 -312,154 -388,-13 -80,-175 88,-321 243,-328 -4,77 -2,158 26,220 38,87 83,93 119,121zm-3371 -156c123,-34 209,106 56,168 -139,57 -205,-126 -56,-168zm5219 -174c240,-75 93,390 -105,408 -150,13 -171,-117 -112,-224 45,-82 116,-153 217,-184zm-1834 237c-84,-3 -112,-152 -90,-216 24,5 24,16 36,41 21,45 56,127 54,175zm-2919 -711c-25,-84 89,-207 132,-166 50,48 -36,179 -132,166zm-50 80c117,-6 133,4 202,-68 154,-162 -18,-331 -120,-230 -81,80 -57,137 -104,165 -5,-28 -14,-138 -18,-154 -12,-38 -69,-46 -70,39 -2,178 41,151 39,209 -3,65 -107,550 -142,607 -29,-15 -41,-41 -87,-60 -237,-95 -401,246 -145,307 102,24 155,-25 207,-74 29,10 54,35 87,56 208,133 453,108 645,-41 32,-25 50,-49 80,-67 6,105 -11,254 138,200 95,-33 155,-99 210,-153 34,-32 55,-60 84,-102 24,-33 119,-292 301,-225 45,156 -201,480 -150,522 59,49 241,-338 356,-431 32,-26 128,-97 181,-63 51,108 -183,397 -117,506 46,23 59,-15 81,-45 60,-82 419,-609 482,-408 33,101 -207,365 -40,403 140,32 308,-148 370,-193 24,27 78,188 271,203 139,11 263,-86 306,-168 286,9 332,-197 367,-241 119,-151 283,-224 258,68 -4,53 -18,115 -32,167 -14,52 -50,117 20,131 44,-30 89,-197 166,-317 78,-122 212,-194 264,-47 33,94 -93,320 64,368 80,25 265,-130 299,-166 8,7 3,1 12,16 26,50 26,113 152,157 128,44 158,-43 250,-66 30,20 84,116 240,7 193,-133 183,-344 97,-276 0,0 -49,97 -59,111 -31,47 -101,156 -191,140 -54,-60 -10,-103 14,-165 162,-413 -227,-362 -410,-165 -71,77 -271,349 -361,314 -104,-50 63,-312 -99,-418 -93,-60 -220,18 -286,84 -21,20 -35,51 -65,68 -4,-110 -7,-201 -103,-228 -152,-43 -294,156 -352,273 -29,58 -114,123 -214,105 -38,-71 -25,-216 -153,-311 -109,-80 -237,-30 -330,40 -151,114 -93,169 -192,263 -43,41 -185,189 -274,174 -24,-80 204,-397 4,-459 -158,-48 -303,212 -360,243 -7,-103 -6,-278 -129,-262 -108,13 -164,118 -237,155 4,-113 -21,-236 -156,-201 -170,43 -286,258 -370,356 -27,32 -143,172 -210,140 -95,-77 90,-420 83,-472l-72 -2c-22,27 -40,99 -50,136 -16,55 -22,49 -68,117 -149,224 -531,357 -726,84 8,-39 39,-102 53,-159 41,-164 55,-315 109,-497z"/>
    <path class="fil0" d="M3020 4072c26,-38 50,-129 -40,-98 -40,13 -59,111 40,98z"/>
   </g>
  </g>
 </g>
</svg>
