<?xml version="1.0" encoding="UTF-8"?>
<!DOCTYPE svg PUBLIC "-//W3C//DTD SVG 1.1//EN" "http://www.w3.org/Graphics/SVG/1.1/DTD/svg11.dtd">
<!-- Creator: CorelDRAW X8 -->
<svg xmlns="http://www.w3.org/2000/svg" xml:space="preserve" width="91.4398mm" height="91.4398mm" version="1.1" style="shape-rendering:geometricPrecision; text-rendering:geometricPrecision; image-rendering:optimizeQuality; fill-rule:evenodd; clip-rule:evenodd"
viewBox="0 0 9144 9144"
 xmlns:xlink="http://www.w3.org/1999/xlink">
 <defs>
  <style type="text/css">
   <![CDATA[
    .fil0 {fill:black}
   ]]>
  </style>
 </defs>
 <g id="Capa_x0020_1">
  <metadata id="CorelCorpID_0Corel-Layer"/>
  <path class="fil0" d="M5224 2721c57,25 115,61 179,89 187,83 398,151 571,235 122,59 231,131 275,262 84,253 -153,615 69,909 175,232 433,320 362,689 -62,325 -304,437 -414,657 -69,138 -68,297 -60,466 21,464 -3,532 -424,636 -216,54 -410,94 -590,216 -53,36 -180,137 -221,180 -26,27 -42,37 -70,65 -157,153 -352,241 -576,129 -244,-121 -223,-333 -589,-488 -221,-95 -610,-189 -724,-348 -169,-235 -17,-514 -158,-912 -100,-280 -337,-499 -327,-748 7,-146 96,-282 157,-381 206,-338 212,-437 239,-830 29,-409 107,-469 496,-577 319,-89 462,-162 702,-370 61,-54 238,-226 291,-242 13,9 22,20 30,29 -26,37 -47,79 -73,118 -192,291 -407,435 -494,831l21 -25c92,-124 109,31 169,33 14,-34 17,-101 26,-144 46,-217 245,-468 348,-677 15,-30 39,-85 56,-110 98,8 9,14 130,2 14,22 32,90 48,122 119,237 519,159 589,503 3,18 1,62 8,72 8,-11 4,-48 20,-76 60,-102 139,40 181,35 -8,-50 -135,-222 -176,-272 -24,-28 -52,-53 -71,-78zm-168 -118c-105,-37 -219,-82 -280,-169 -10,-14 -46,-74 -49,-92 78,18 258,214 329,261zm-298 -456c38,-43 245,-143 325,-166 141,-40 308,-32 334,113 27,146 -132,207 -256,225 -76,11 -152,8 -224,-10 -127,-31 -118,-60 -165,-77l-14 -85zm-365 -52c-15,35 -31,54 -35,101 -6,60 18,54 -36,85 -47,27 -131,56 -189,71 -136,37 -339,66 -342,-132 -2,-156 90,-283 241,-286 124,-3 304,94 361,161zm632 336c157,2 327,-28 414,-114 115,-114 117,-269 16,-375 -96,-102 -250,-109 -410,-61 -186,55 -297,154 -352,176 -91,-55 -93,-53 -213,-33 -22,-12 -55,-42 -78,-59 -77,-56 -163,-105 -263,-127 -405,-89 -520,350 -421,525 30,53 77,92 150,110 87,22 149,7 233,-2 -29,49 -254,208 -317,245 -117,69 -259,111 -403,153 -346,102 -511,167 -555,563 -19,170 -13,345 -55,507 -36,144 -111,271 -177,380 -180,295 -256,479 -56,821 201,345 273,422 277,841 2,179 5,338 90,471 172,267 667,317 920,480 185,120 235,307 427,405 225,115 432,97 632,-58l150 -131c71,-74 229,-193 318,-238 128,-64 277,-98 427,-135 149,-37 301,-72 400,-156 261,-225 61,-616 156,-942 23,-79 62,-127 102,-179l129 -146c37,-41 89,-112 119,-162 110,-187 160,-467 50,-659 -164,-287 -436,-307 -404,-699 12,-162 65,-343 33,-505 -58,-293 -352,-385 -623,-495 -133,-54 -270,-102 -391,-166 -94,-49 -212,-128 -290,-199 -9,-9 -11,-10 -19,-17l-16 -19z"/>
 </g>
</svg>
