<?xml version="1.0" encoding="UTF-8"?>
<!DOCTYPE svg PUBLIC "-//W3C//DTD SVG 1.1//EN" "http://www.w3.org/Graphics/SVG/1.1/DTD/svg11.dtd">
<!-- Creator: CorelDRAW X8 -->
<svg xmlns="http://www.w3.org/2000/svg" xml:space="preserve" width="91.4398mm" height="91.4398mm" version="1.1" style="shape-rendering:geometricPrecision; text-rendering:geometricPrecision; image-rendering:optimizeQuality; fill-rule:evenodd; clip-rule:evenodd"
viewBox="0 0 9144 9144"
 xmlns:xlink="http://www.w3.org/1999/xlink">
 <defs>
  <style type="text/css">
   <![CDATA[
    .fil0 {fill:black}
   ]]>
  </style>
 </defs>
 <g id="Capa_x0020_1">
  <metadata id="CorelCorpID_0Corel-Layer"/>
  <path class="fil0" d="M3735 3002c243,-120 426,-348 573,-444 148,-97 259,-62 373,25 114,87 230,226 438,337 208,111 509,195 683,298 175,104 224,227 214,394 -9,167 -77,377 -12,536 65,159 264,267 345,425 81,158 44,367 -46,521 -89,155 -232,256 -296,390 -63,133 -48,300 -40,469 8,168 8,339 -147,433 -154,93 -462,111 -686,224 -223,113 -362,321 -528,399 -166,79 -359,27 -476,-71 -118,-97 -160,-240 -364,-344 -205,-104 -571,-170 -716,-343 -144,-173 -67,-453 -113,-692 -46,-240 -214,-439 -288,-605 -73,-166 -51,-299 26,-445 77,-146 208,-306 252,-536 44,-229 2,-528 132,-684 130,-155 433,-167 676,-287z"/>
 </g>
</svg>
