<?xml version="1.0" encoding="UTF-8"?>
<!DOCTYPE svg PUBLIC "-//W3C//DTD SVG 1.1//EN" "http://www.w3.org/Graphics/SVG/1.1/DTD/svg11.dtd">
<!-- Creator: CorelDRAW X8 -->
<svg xmlns="http://www.w3.org/2000/svg" xml:space="preserve" width="91.4398mm" height="91.4398mm" version="1.1" style="shape-rendering:geometricPrecision; text-rendering:geometricPrecision; image-rendering:optimizeQuality; fill-rule:evenodd; clip-rule:evenodd"
viewBox="0 0 9144 9144"
 xmlns:xlink="http://www.w3.org/1999/xlink">
 <defs>
  <style type="text/css">
   <![CDATA[
    .fil0 {fill:#E7E8DA}
   ]]>
  </style>
 </defs>
 <g id="Capa_x0020_1">
  <metadata id="CorelCorpID_0Corel-Layer"/>
  <path class="fil0" d="M4074 2311l108 22c37,8 69,15 105,24 33,8 67,17 99,30 17,6 31,11 47,18 8,3 14,6 22,10l102 60c12,8 23,19 34,29 7,6 11,9 18,16 82,84 125,191 68,305 -8,17 -14,29 -24,44 -14,21 -28,41 -45,58 -45,44 -84,72 -143,98 -32,14 -65,26 -99,38 -66,23 -132,50 -193,81 -46,23 -86,50 -126,80 -71,53 -144,148 -188,223 -5,8 -9,15 -13,22 -17,28 -34,61 -46,92 -3,8 -7,16 -10,24 -42,105 -75,218 -75,339 0,67 3,117 16,181 8,40 21,83 35,118 11,27 21,53 35,79 5,8 9,16 14,24 101,170 207,259 362,363 8,5 15,9 23,15 61,41 127,76 188,117l89 62c16,12 27,22 42,34l40 37c24,31 42,46 67,85 62,101 108,228 108,350l0 42c0,110 -41,210 -103,284l-17 19c-24,24 -49,46 -77,65 -8,5 -12,9 -20,14 -8,5 -14,9 -22,14 -9,5 -13,8 -22,13 -8,5 -14,9 -23,13 -16,8 -29,17 -45,25 -17,8 -32,15 -48,24 -8,4 -13,7 -22,12l-71 35c-85,43 -213,111 -280,179 -7,6 -12,10 -19,17 -36,36 -68,73 -98,114 -25,35 -45,73 -64,111 -5,9 -8,16 -12,25 -37,78 -68,189 -68,287 0,114 32,198 87,285l23 33c29,38 62,71 97,103 14,14 31,27 48,38l128 74c7,4 12,7 19,10 7,2 13,5 20,8 41,18 86,31 129,42 62,15 128,27 194,36l399 31c8,2 16,2 27,2l1 0 1 0 8 -131c0,-7 0,-14 0,-21 0,-45 8,-104 8,-151 -10,0 -9,-1 -17,-2 -6,0 -13,0 -20,0l-89 -6c-6,0 -13,0 -20,0 -8,0 -7,-1 -16,-2 -33,-2 -99,-5 -126,-9 -11,-1 -24,-2 -35,-3 -11,-1 -24,-3 -35,-4 -170,-16 -387,-60 -485,-207 -11,-17 -19,-30 -27,-49 -25,-64 -13,-142 12,-203 13,-34 27,-65 45,-96 7,-13 19,-29 28,-42 27,-35 40,-45 69,-72 55,-53 153,-100 220,-134 123,-61 251,-122 356,-211 7,-5 12,-10 18,-16 15,-15 32,-27 46,-43 36,-42 70,-85 99,-133 9,-15 16,-29 24,-46 133,-264 87,-603 -51,-845 -37,-63 -82,-125 -133,-176l-38 -38c-20,-19 -42,-37 -64,-53l-44 -33c-7,-6 -15,-11 -23,-17 -66,-49 -212,-133 -284,-181 -39,-26 -74,-53 -111,-83l-39 -37c-12,-15 -25,-27 -37,-42 -6,-7 -11,-13 -17,-21 -62,-83 -100,-180 -100,-289 0,-135 52,-277 128,-387 5,-6 10,-13 15,-19 20,-25 40,-52 66,-72l39 -29c21,-14 42,-27 65,-37l73 -31c108,-43 164,-55 267,-112 9,-5 13,-8 21,-13 15,-8 28,-18 41,-28l57 -46c6,-5 12,-11 17,-17 12,-12 23,-22 34,-35 3,-3 5,-5 8,-8 19,-21 36,-45 52,-69 19,-28 34,-57 50,-87 32,-64 56,-147 56,-221 0,-85 -6,-126 -34,-205 -46,-129 -152,-244 -262,-320 -20,-14 -40,-26 -60,-38 -20,-12 -41,-22 -63,-33 -33,-17 -69,-30 -104,-42 -12,-4 -24,-8 -38,-13 -75,-24 -155,-42 -233,-57 -27,-6 -56,-10 -82,-16 -12,49 -19,98 -29,148 -4,22 -28,130 -28,150z"/>
 </g>
</svg>
