<?xml version="1.0" encoding="UTF-8"?>
<!DOCTYPE svg PUBLIC "-//W3C//DTD SVG 1.1//EN" "http://www.w3.org/Graphics/SVG/1.1/DTD/svg11.dtd">
<!-- Creator: CorelDRAW X8 -->
<svg xmlns="http://www.w3.org/2000/svg" xml:space="preserve" width="91.4398mm" height="114.3mm" version="1.1" style="shape-rendering:geometricPrecision; text-rendering:geometricPrecision; image-rendering:optimizeQuality; fill-rule:evenodd; clip-rule:evenodd"
viewBox="0 0 9144 11430"
 xmlns:xlink="http://www.w3.org/1999/xlink">
 <defs>
  <style type="text/css">
   <![CDATA[
    .fil2 {fill:#E7E8DA}
    .fil0 {fill:#FCF6ED}
    .fil3 {fill:#C8B49B;fill-opacity:0.309804}
    .fil4 {fill:#C8B49B;fill-rule:nonzero;fill-opacity:0.309804}
    .fil5 {fill:#E7E8DA;fill-opacity:0.709804}
    .fil1 {fill:#FAE9E1;fill-opacity:0.709804}
    .fil6 {fill:#E7E8DA;fill-rule:nonzero;fill-opacity:0.709804}
   ]]>
  </style>
 </defs>
 <g id="Capa_x0020_1">
  <metadata id="CorelCorpID_0Corel-Layer"/>
  <rect class="fil0" x="-2" y="-9" width="9208" height="11499"/>
  <path class="fil1" d="M480 -31c-1,291 -3,590 -5,896 -21,3474 -108,7813 -151,9982 -5,213 -8,404 -12,577l561 0c29,-276 55,-606 76,-999 119,-2230 83,-6510 -33,-9894 -6,-190 -13,-378 -20,-562l-416 0z"/>
  <path class="fil2" d="M2048 -31c0,264 1,534 2,809 11,3474 54,7813 76,9982 2,249 4,469 6,664l-276 0c-17,-294 -31,-650 -43,-1085 -60,-2231 -42,-6511 16,-9895 3,-160 6,-319 9,-475l210 0z"/>
  <path class="fil3" d="M3372 11424c3,-1108 -4,-2780 6,-4724 12,-2152 45,-4636 78,-6731l-552 0c-13,2175 23,4817 90,7065 53,1799 127,3346 193,4390l185 0z"/>
  <path class="fil1" d="M4290 -31c-1,291 -2,590 -3,896 -16,3474 -78,7813 -110,9982 -3,213 -5,404 -8,577l453 0c19,-847 -38,-2148 -49,-3953 -13,-2099 37,-4879 -4,-7502l-279 0z"/>
  <path class="fil3" d="M5822 -31c-2,153 -3,307 -5,463 -32,3285 -52,7245 -59,9449 -2,657 -2,1158 -1,1543l-339 0c-53,-832 40,-2209 57,-4197 17,-2034 -46,-4707 1,-7258l346 0z"/>
  <path class="fil4" d="M5825 -31c-1,153 -3,307 -4,463 -14,1460 -26,3053 -36,4566 -11,1892 -19,3659 -23,4883 -2,657 -2,1158 -1,1543l-8 0c-1,-385 0,-886 2,-1543 3,-1224 11,-2991 23,-4883 9,-1513 21,-3106 35,-4566 2,-156 3,-310 5,-463l7 0zm-410 11455c-32,-486 -13,-1158 12,-2028 17,-621 37,-1342 44,-2169 7,-834 1,-1777 -6,-2774 -10,-1433 -21,-2980 7,-4484l7 0c-27,1504 -16,3051 -7,4484 7,997 14,1940 7,2774 -7,827 -27,1548 -45,2169 -24,870 -43,1542 -12,2028l-7 0z"/>
  <path class="fil3" d="M8201 -31c1,439 2,899 5,1375 22,3474 109,7813 152,9982l2 98 -612 0c-47,-1376 40,-3578 57,-5521 17,-2078 -47,-3858 8,-5934l388 0z"/>
  <path class="fil5" d="M6641 11424c-6,-1147 -4,-2590 -9,-4223 -7,-2327 -29,-5041 -49,-7232l389 0c82,3072 132,7471 84,10296 -7,421 -17,807 -28,1159l-387 0z"/>
  <path class="fil6" d="M6637 11424c-3,-613 -4,-1311 -5,-2077 -1,-667 -1,-1386 -4,-2146 -5,-1738 -19,-3691 -34,-5481 -5,-607 -10,-1196 -15,-1751l8 0c5,555 10,1144 15,1751 15,1790 28,3743 34,5481 2,760 3,1479 4,2146 1,766 1,1464 4,2077l-7 0zm339 -11455c35,1332 65,2915 83,4510 24,2082 28,4187 1,5786 -7,421 -17,807 -28,1159l-7 0c11,-352 20,-738 27,-1159 28,-1599 23,-3704 -1,-5786 -18,-1595 -47,-3178 -83,-4510l8 0z"/>
  <path class="fil3" d="M-4 8764c521,1 1073,3 1649,7 2428,15 5278,62 7515,103l0 -639c-2299,-34 -5323,8 -7849,95 -456,15 -895,32 -1315,50l0 384z"/>
  <path class="fil5" d="M-4 3417c392,4 799,8 1216,12 2633,26 5700,44 7948,53l0 307c-358,-8 -742,-14 -1153,-18 -2140,-18 -4987,53 -7655,-9 -119,-3 -238,-6 -356,-9l0 -336z"/>
  <path class="fil6" d="M-4 3413c392,4 799,8 1216,12 1460,14 3053,26 4566,36 1216,7 2380,13 3382,17l0 8c-1002,-4 -2166,-10 -3382,-18 -1513,-9 -3106,-21 -4566,-35 -417,-4 -824,-8 -1216,-12l0 -8zm9164 380c-358,-8 -743,-15 -1153,-18 -834,-7 -1776,-1 -2774,6 -1559,11 -3254,23 -4881,-15 -119,-3 -238,-6 -356,-9l0 -8c118,4 237,7 356,9 1627,38 3322,26 4881,16 998,-7 1940,-14 2774,-7 411,4 795,11 1153,19l0 7z"/>
  <path class="fil3" d="M-4 4955c521,0 1073,2 1649,4 2428,11 5278,45 7515,75l0 -370c-287,4 -590,7 -909,9 -2140,13 -4988,-38 -7656,6 -201,4 -401,8 -599,12l0 264z"/>
  <path class="fil4" d="M-4 4951c521,0 1073,2 1649,4 1737,8 3691,28 5481,49 712,9 1398,18 2034,26l0 8c-636,-9 -1322,-18 -2034,-26 -1790,-22 -3744,-41 -5481,-49 -576,-3 -1128,-4 -1649,-5l0 -7zm9164 -284c-287,5 -590,8 -909,10 -835,5 -1777,0 -2774,-5 -1560,-8 -3254,-16 -4882,11 -201,4 -401,8 -599,12l0 -8c198,-4 398,-8 599,-11 1628,-28 3322,-19 4882,-11 997,5 1939,9 2774,4 319,-2 622,-5 909,-9l0 7z"/>
  <path class="fil3" d="M-4 1047c657,-1 1372,-2 2128,-7 2258,-14 4881,-56 7036,-95l0 539c-818,-17 -1670,-36 -2477,-43 -2140,-18 -3964,51 -6120,-13 -187,-5 -377,-12 -567,-19l0 -362z"/>
  <path class="fil1" d="M-4 2270c644,0 1343,-1 2081,-3 2275,-8 4919,-29 7083,-48l0 318c-2237,11 -5046,-10 -7416,-50 -616,-11 -1201,-22 -1748,-35l0 -182z"/>
  <path class="fil1" d="M-4 9606c404,0 824,-1 1258,-3 2572,-8 5618,-33 7906,-55l0 320c-2339,22 -5568,2 -8239,-44 -317,-6 -625,-11 -925,-17l0 -201z"/>
  <path class="fil5" d="M-4 7200c495,-1 1018,-2 1562,-3 2460,-8 5353,-32 7602,-53l0 320c-2309,18 -5378,-3 -7936,-47 -424,-7 -835,-15 -1228,-23l0 -194z"/>
  <path class="fil1" d="M9160 5873c-530,0 -1092,-2 -1680,-5 -2417,-13 -5252,-54 -7484,-90l0 557c2295,29 5304,-8 7818,-83 467,-14 917,-29 1346,-45l0 -334z"/>
 </g>
</svg>
