<?xml version="1.0" encoding="UTF-8"?>
<!DOCTYPE svg PUBLIC "-//W3C//DTD SVG 1.1//EN" "http://www.w3.org/Graphics/SVG/1.1/DTD/svg11.dtd">
<!-- Creator: CorelDRAW X8 -->
<svg xmlns="http://www.w3.org/2000/svg" xml:space="preserve" width="91.4398mm" height="114.3mm" version="1.1" style="shape-rendering:geometricPrecision; text-rendering:geometricPrecision; image-rendering:optimizeQuality; fill-rule:evenodd; clip-rule:evenodd"
viewBox="0 0 9144 11430"
 xmlns:xlink="http://www.w3.org/1999/xlink">
 <defs>
  <style type="text/css">
   <![CDATA[
    .fil0 {fill:#FCF6ED}
    .fil1 {fill:#FAE9E1}
    .fil2 {fill:#F3E9DF;fill-rule:nonzero}
   ]]>
  </style>
 </defs>
 <g id="Capa_x0020_1">
  <metadata id="CorelCorpID_0Corel-Layer"/>
  <rect class="fil0" x="-2" y="-9" width="9208" height="11499"/>
  <path class="fil1" d="M5091 8811c-38,60 -53,199 -50,718 4,518 26,1416 28,1867 1,40 1,77 1,111l3223 0c0,-42 0,-88 0,-141 0,-507 -6,-1530 -10,-2059 -3,-529 -3,-562 -16,-567 -13,-5 -40,18 -545,32 -506,13 -1490,16 -2012,8 -522,-8 -581,-28 -619,31z"/>
  <path class="fil1" d="M2018 11507c0,-19 0,-39 0,-59 0,-507 -6,-1531 -10,-2060 -3,-528 -3,-562 -16,-567 -14,-5 -40,19 -546,32 -353,9 -941,14 -1441,13l0 2641 2013 0z"/>
  <path class="fil1" d="M8275 5686c-37,60 -52,199 -49,717 3,519 25,1417 28,1868 2,451 -14,454 -14,464 0,10 16,26 557,26 122,0 272,0 436,-2l0 -3101c-125,-1 -240,-2 -338,-3 -522,-9 -582,-29 -620,31z"/>
  <path class="fil2" d="M8279 5688c-19,29 -32,78 -40,185 -8,107 -11,271 -9,530 1,266 8,630 14,983 6,338 12,665 14,885 2,393 -11,446 -14,460 0,2 0,3 0,4 0,3 4,8 72,13 71,5 211,10 481,10 122,0 272,-1 436,-3l0 8c-164,1 -314,2 -436,2 -271,0 -410,-4 -482,-9 -75,-6 -79,-15 -79,-21 0,-2 0,-3 1,-6 3,-13 15,-66 13,-458 -1,-220 -7,-547 -13,-884 -7,-354 -13,-718 -15,-984 -2,-259 1,-424 9,-531 9,-107 22,-158 41,-188 30,-48 72,-46 328,-40 77,2 173,5 295,7 98,1 213,3 338,3l0 8c-125,-1 -240,-2 -338,-4 -122,-1 -218,-4 -295,-6 -252,-7 -294,-8 -321,36z"/>
  <path class="fil1" d="M2000 5800c-37,60 -53,199 -49,718 3,518 25,1416 28,1867 2,451 -14,454 -14,464 0,10 16,27 556,27 541,0 1605,-17 2140,-20 535,-4 542,6 542,-501 0,-507 -7,-1531 -10,-2059 -4,-529 -4,-562 -17,-567 -13,-5 -40,18 -545,32 -505,13 -1490,16 -2011,8 -522,-8 -582,-28 -620,31z"/>
  <path class="fil1" d="M5163 2756c-38,59 -53,198 -50,717 4,518 26,1417 28,1867 3,451 -14,454 -14,464 0,10 17,27 557,27 540,0 1604,-17 2139,-20 536,-3 542,7 542,-500 0,-507 -6,-1531 -10,-2060 -3,-528 -3,-562 -16,-567 -14,-5 -40,19 -545,32 -506,13 -1490,17 -2012,8 -522,-8 -582,-28 -619,32z"/>
  <path class="fil1" d="M5 5908c532,-5 1168,-13 1543,-16 536,-3 542,7 542,-500 0,-507 -6,-1531 -10,-2060 -3,-528 -3,-561 -16,-566 -14,-5 -40,18 -546,31 -370,10 -999,14 -1513,13l0 3098z"/>
  <path class="fil1" d="M8300 -28c-3,95 -3,218 -2,375 3,519 25,1417 28,1868 2,451 -14,454 -14,464 0,10 16,27 557,27 104,0 228,-1 364,-2l0 -2732 -933 0z"/>
  <path class="fil2" d="M8304 -28c-3,95 -3,218 -2,375 1,266 8,631 14,984 6,337 12,664 13,884 3,393 -10,447 -13,460 0,2 -1,3 -1,4 0,3 4,8 73,13 71,6 211,10 481,10 104,0 228,-1 364,-2l0 8c-136,1 -260,1 -364,1 -271,0 -410,-4 -482,-9 -75,-6 -79,-14 -79,-21 0,-2 0,-3 1,-5 3,-14 15,-67 13,-459 -1,-220 -7,-547 -13,-884 -7,-353 -13,-718 -15,-984 -1,-157 0,-279 2,-375l8 0z"/>
  <path class="fil1" d="M2029 -28c-6,106 -8,261 -6,490 3,518 25,1416 28,1867 2,451 -14,454 -14,464 0,10 16,27 556,27 541,0 1604,-17 2140,-20 535,-3 542,6 542,-501 0,-506 -7,-1530 -10,-2059 -1,-109 -2,-197 -2,-268l-3234 0z"/>
 </g>
</svg>
