<?xml version="1.0" encoding="UTF-8"?>
<!DOCTYPE svg PUBLIC "-//W3C//DTD SVG 1.1//EN" "http://www.w3.org/Graphics/SVG/1.1/DTD/svg11.dtd">
<!-- Creator: CorelDRAW X8 -->
<svg xmlns="http://www.w3.org/2000/svg" xml:space="preserve" width="91.4398mm" height="91.4398mm" version="1.1" style="shape-rendering:geometricPrecision; text-rendering:geometricPrecision; image-rendering:optimizeQuality; fill-rule:evenodd; clip-rule:evenodd"
viewBox="0 0 9144 9144"
 xmlns:xlink="http://www.w3.org/1999/xlink">
 <defs>
  <style type="text/css">
   <![CDATA[
    .fil0 {fill:#E7E8DA}
   ]]>
  </style>
 </defs>
 <g id="Capa_x0020_1">
  <metadata id="CorelCorpID_0Corel-Layer"/>
  <path class="fil0" d="M5231 4890c3,-34 18,-83 29,-111 7,-18 13,-32 21,-48 17,-39 53,-103 75,-136 43,-62 76,-103 122,-161l49 -56c7,-8 9,-11 17,-19l177 -174c71,-67 207,-160 286,-207l90 -50c79,-48 232,-103 320,-103 178,0 164,161 100,289 -10,20 -18,34 -28,51 -23,39 -38,58 -65,92 -41,51 -69,79 -117,122 -99,87 -144,115 -254,180 -70,41 -114,61 -184,96l-135 62c-71,30 -186,77 -257,100l-181 58c-15,4 -51,14 -65,15zm-645 -1963l39 0c59,3 117,17 161,47 41,27 73,54 98,97 43,72 56,158 40,240 -16,76 -50,143 -90,204 -21,31 -43,55 -65,84 -28,36 -89,86 -127,117 -36,29 -74,58 -114,81 -72,44 -145,88 -220,126 -54,27 -109,57 -164,80 -74,30 -202,81 -275,117 -17,9 -35,15 -50,25 -15,10 -21,30 -28,46 -71,171 -109,383 -49,565 25,75 77,142 143,184 159,99 376,92 583,92 136,0 260,-34 389,-55 78,-13 78,0 81,-31 10,-88 39,-183 71,-262 21,-51 45,-102 73,-149l85 -138c31,-46 61,-85 95,-127l63 -75c17,-23 50,-54 71,-76l24 -23c18,-18 36,-39 55,-55l278 -221c54,-40 113,-74 172,-106 12,-6 23,-13 35,-20 12,-7 23,-12 36,-18 175,-87 411,-178 613,-87 27,12 46,25 69,41 43,33 73,75 100,123 77,138 59,310 -1,448 -11,25 -23,52 -36,74l-42 71c-72,113 -174,222 -283,298l-220 140c-12,8 -23,14 -34,21 -24,14 -46,27 -71,42 -50,30 -132,60 -187,87 -63,31 -128,58 -193,84 -94,38 -426,157 -507,157 0,23 6,64 10,83 16,69 47,133 96,181 104,104 241,144 386,169 69,11 116,11 165,18l317 8c14,-1 36,-5 36,8l0 260 -134 0c-4,0 -8,0 -13,-1 -37,-6 -78,3 -115,-3 -20,-3 -81,-1 -115,-6 -10,-1 -19,0 -29,-1l-80 -7c-207,-24 -391,-67 -553,-194 -7,-6 -10,-9 -16,-15 -12,-10 -21,-17 -31,-28 -7,-7 -8,-10 -14,-17 -7,-7 -8,-8 -14,-16 -27,-34 -50,-69 -71,-108 -40,-75 -66,-160 -86,-243 -2,-8 -2,-16 -11,-16 -91,0 -183,21 -271,36 -133,22 -226,27 -363,27 -162,0 -330,-33 -476,-96 -42,-18 -84,-41 -122,-67 -10,-8 -18,-14 -28,-22l-50 -42c-24,-24 -46,-50 -66,-78 -19,-28 -37,-59 -52,-90 -55,-124 -60,-207 -60,-346 0,-119 38,-267 38,-299 -6,2 -19,5 -27,8l-180 59c-69,21 -134,46 -204,67l-625 193c-140,42 -278,87 -417,127 -55,15 -104,33 -158,48 -14,4 -38,13 -52,13 0,-54 -17,-90 -31,-131 -14,-43 -24,-79 -24,-137 73,-18 143,-41 215,-63 70,-21 142,-39 211,-63 71,-23 142,-43 211,-66 35,-12 69,-22 106,-32 36,-10 68,-22 105,-32l421 -130c36,-12 69,-21 104,-33l307 -106c34,-12 68,-24 102,-37 65,-26 81,-41 107,-100 33,-76 76,-151 122,-221l56 -81c36,-55 73,-109 115,-160 11,-13 20,-27 31,-40l47 -57c32,-42 112,-129 148,-159 63,-53 124,-108 198,-145 10,-5 13,-8 23,-13l72 -30c36,-12 78,-20 121,-22zm-571 838c2,-11 7,-16 12,-24l42 -65c15,-21 120,-161 142,-182 7,-8 9,-12 16,-20l182 -180c40,-31 38,-33 85,-61 38,-22 73,-37 122,-37 39,0 44,15 44,50 0,42 -22,79 -40,105 -43,65 -72,84 -121,132 -18,16 -43,34 -62,48 -85,63 -222,141 -322,188l-100 46z"/>
 </g>
</svg>
